<svg width="35" height="35" viewBox="0 0 79 61" fill="none" xmlns="http://www.w3.org/2000/svg">
<path fill-rule="evenodd" clip-rule="evenodd" d="M66.9343 30.1611C66.9343 45.4432 54.5456 57.8319 39.2635 57.8319C23.9814 57.8319 11.5928 45.4432 11.5928 30.1611C11.5928 14.879 23.9814 2.49036 39.2635 2.49036C54.5456 2.49036 66.9343 14.879 66.9343 30.1611ZM16.641 30.1611C16.641 42.6552 26.7695 52.7837 39.2635 52.7837C51.7576 52.7837 61.8862 42.6552 61.8862 30.1611C61.8862 17.667 51.7576 7.53859 39.2635 7.53859C26.7695 7.53859 16.641 17.667 16.641 30.1611Z" fill="#24262D"/>
<path d="M26.257 23.6722C24.9859 22.6906 24.986 21.0992 26.257 20.1176C27.528 19.1361 29.5887 19.1361 30.8597 20.1176L39.2814 26.6215L47.6946 20.1242C48.9658 19.1427 51.0263 19.1427 52.2972 20.1242C53.5685 21.1058 53.5685 22.6972 52.2972 23.6788L43.8841 30.176L52.294 36.6705C53.5649 37.6522 53.5649 39.2434 52.294 40.2249C51.0227 41.2067 48.9622 41.2067 47.691 40.2249L39.2814 33.7305L30.8691 40.2272C29.5981 41.2087 27.5374 41.2087 26.2664 40.2272C24.9954 39.2455 24.9954 37.6542 26.2664 36.6725L34.6787 30.176L26.257 23.6722Z" fill="#24262D"/>
</svg>
