<svg width="151" height="152" viewBox="0 0 151 152" fill="none" xmlns="http://www.w3.org/2000/svg">
<path fill-rule="evenodd" clip-rule="evenodd" d="M141.583 75.6078C141.576 80.809 137.357 85.0279 132.153 85.0379L85.0017 85.0376L85.0019 132.189C84.9953 137.39 80.773 141.612 75.5718 141.619C70.3373 141.592 66.1418 137.397 66.1152 132.162L66.115 85.0111L18.9645 85.0113C13.7632 85.018 9.53408 80.7888 9.54074 75.5876C9.5474 70.3864 13.7696 66.1641 18.9709 66.1575L66.1218 66.1577L66.1215 19.0069C66.1315 13.8023 70.3504 9.5834 75.5516 9.57674C80.7561 9.56675 84.9853 13.7959 84.9753 19.0005L84.9752 66.1509L132.126 66.1512C137.364 66.1745 141.559 70.37 141.583 75.6078ZM94.4053 56.7207L94.4218 19.0102C94.4318 8.61111 85.9743 0.153594 75.5752 0.163584C65.1361 0.146936 56.6917 8.59135 56.7117 19.0271L56.6981 56.734L18.9912 56.7476C8.55878 56.7243 0.114294 65.1688 0.130942 75.6078C0.120952 86.0069 8.57846 94.4644 18.9776 94.4544L56.6848 94.4412L56.705 132.182C56.695 142.581 65.1529 151.039 75.552 151.029C85.9911 151.046 94.4355 142.601 94.4122 132.169L94.4254 94.4613L132.133 94.4481C142.568 94.4681 151.013 86.0237 150.996 75.5846C151.006 65.1855 142.548 56.7276 132.149 56.7376L94.4053 56.7207Z" fill="#94AFB0"/>
</svg>
