<svg width="170" height="172" viewBox="0 0 170 172" fill="none" xmlns="http://www.w3.org/2000/svg">
<path d="M84.646 57.873V86.406L102.271 104.239" stroke="#C52E2E" stroke-width="10.6999" stroke-linecap="round" stroke-linejoin="round"/>
<path d="M30.6286 49.8169L25.3412 49.8437C25.3557 52.7774 27.7026 55.1519 30.602 55.1667L30.6286 49.8169ZM48.5479 55.2579C51.468 55.2728 53.8472 52.8896 53.8618 49.935C53.8765 46.9803 51.5212 44.5731 48.601 44.5582L48.5479 55.2579ZM35.8258 31.6319C35.811 28.6773 33.432 26.2941 30.5118 26.3089C27.5917 26.3238 25.2363 28.7311 25.251 31.6857L35.8258 31.6319ZM26.4843 86.406C26.4843 83.4514 24.117 81.0561 21.1969 81.0561C18.2767 81.0561 15.9094 83.4514 15.9094 86.406H26.4843ZM119.018 146.648C121.546 145.168 122.41 141.895 120.947 139.338C119.485 136.78 116.251 135.906 113.723 137.386L119.018 146.648ZM135.03 115.827C133.567 118.384 134.432 121.657 136.959 123.136C139.487 124.616 142.722 123.742 144.184 121.184L135.03 115.827ZM36.286 36.9817C34.2108 39.0605 34.1941 42.4479 36.2488 44.5475C38.3033 46.6472 41.651 46.664 43.7262 44.5852L36.286 36.9817ZM133.025 37.4567C106.093 10.2063 62.5715 9.93042 35.8177 37.0005L43.2952 44.5664C65.8486 21.7464 102.674 21.879 125.547 45.0227L133.025 37.4567ZM35.8177 37.0005L26.8898 46.0339L34.3673 53.5998L43.2952 44.5664L35.8177 37.0005ZM30.602 55.1667L48.5479 55.2579L48.601 44.5582L30.6551 44.467L30.602 55.1667ZM35.9159 49.79L35.8258 31.6319L25.251 31.6857L25.3412 49.8437L35.9159 49.79ZM84.646 27.5568C116.767 27.5568 142.808 53.9045 142.808 86.406H153.383C153.383 47.9951 122.608 16.8569 84.646 16.8569V27.5568ZM84.646 145.255C52.5242 145.255 26.4843 118.907 26.4843 86.406H15.9094C15.9094 124.817 46.6838 155.955 84.646 155.955V145.255ZM113.723 137.386C105.174 142.39 95.2484 145.255 84.646 145.255V155.955C97.1575 155.955 108.903 152.568 119.018 146.648L113.723 137.386ZM142.808 86.406C142.808 97.1337 139.976 107.177 135.03 115.827L144.184 121.184C150.035 110.949 153.383 99.0654 153.383 86.406H142.808ZM43.7262 44.5852C54.2403 34.0522 68.6883 27.5568 84.646 27.5568V16.8569C65.7905 16.8569 48.6995 24.5459 36.286 36.9817L43.7262 44.5852Z" fill="#C52E2E"/>
</svg>
