<svg width="132" height="133" viewBox="0 0 132 133" fill="none" xmlns="http://www.w3.org/2000/svg">
<path fill-rule="evenodd" clip-rule="evenodd" d="M65.9999 17.3263C38.7567 17.3263 16.6717 39.4113 16.6717 66.6545C16.6717 93.8978 38.7567 115.983 65.9999 115.983C93.2432 115.983 115.328 93.8978 115.328 66.6545C115.328 39.4113 93.2432 17.3263 65.9999 17.3263ZM5.70987 66.6545C5.70987 33.3572 32.7027 6.36444 65.9999 6.36444C99.2972 6.36444 126.29 33.3572 126.29 66.6545C126.29 99.9518 99.2972 126.945 65.9999 126.945C32.7027 126.945 5.70987 99.9518 5.70987 66.6545Z" fill="#94AFB0"/>
<path fill-rule="evenodd" clip-rule="evenodd" d="M65.9999 28.2881C69.027 28.2881 71.4808 30.742 71.4808 33.7691V63.2672L90.3747 72.7141C93.0822 74.0678 94.1796 77.3601 92.8259 80.0675C91.4721 82.775 88.1799 83.8724 85.4725 82.5187L63.5488 71.5568C61.6919 70.6284 60.519 68.7306 60.519 66.6546V33.7691C60.519 30.742 62.9729 28.2881 65.9999 28.2881Z" fill="#94AFB0"/>
</svg>
