<svg width="35" height="35" viewBox="0 0 149 151" fill="none" xmlns="http://www.w3.org/2000/svg">
<path fill-rule="evenodd" clip-rule="evenodd" d="M53.9084 15.5909C55.289 18.7547 53.8435 22.4388 50.6796 23.8194C42.2579 27.4945 34.8646 33.1768 29.1462 40.3693C23.4278 47.5618 19.5583 56.0456 17.8762 65.079C16.194 74.1124 16.7503 83.4204 19.4965 92.1891C22.2426 100.958 27.095 108.92 33.6294 115.381C40.1638 121.841 48.1812 126.602 56.9808 129.248C65.7803 131.894 75.094 132.344 84.1077 130.558C93.1213 128.773 101.56 124.807 108.687 119.007C115.814 113.207 121.411 105.749 124.99 97.286C126.334 94.1066 130.002 92.619 133.181 93.9634C136.36 95.3079 137.848 98.9752 136.504 102.155C132.13 112.498 125.288 121.613 116.578 128.702C107.867 135.792 97.553 140.639 86.5363 142.821C75.5197 145.003 64.1363 144.453 53.3813 141.219C42.6263 137.985 32.8272 132.166 24.8407 124.27C16.8542 116.374 10.9235 106.642 7.56711 95.9251C4.2107 85.2078 3.53076 73.8314 5.58675 62.7905C7.64274 51.7497 12.372 41.3806 19.3612 32.5897C26.3504 23.7989 35.3866 16.854 45.6798 12.3621C48.8437 10.9815 52.5277 12.4271 53.9084 15.5909Z" fill="#94AFB0"/>
<path fill-rule="evenodd" clip-rule="evenodd" d="M68.7613 8.48352C69.9335 7.31135 71.5233 6.65283 73.181 6.65283C82.2099 6.65283 91.1503 8.4312 99.4919 11.8864C107.834 15.3416 115.413 20.406 121.797 26.7903C128.182 33.1747 133.246 40.7541 136.701 49.0957C140.156 57.4373 141.935 66.3777 141.935 75.4066C141.935 78.8586 139.136 81.6569 135.684 81.6569H73.181C69.729 81.6569 66.9307 78.8586 66.9307 75.4066V12.9032C66.9307 11.2455 67.5892 9.65568 68.7613 8.48352ZM79.4313 19.5018V69.1563H129.086C128.5 63.9148 127.178 58.7713 125.152 53.8795C122.325 47.0545 118.182 40.8532 112.958 35.6297C107.734 30.4061 101.533 26.2625 94.7081 23.4355C89.8163 21.4093 84.6728 20.0879 79.4313 19.5018Z" fill="#94AFB0"/>
</svg>
