<svg width="35" height="35" viewBox="0 0 151 151" fill="none" xmlns="http://www.w3.org/2000/svg">
<path fill-rule="evenodd" clip-rule="evenodd" d="M69.5663 25.4035C45.4025 25.4035 25.8139 44.9921 25.8139 69.1559C25.8139 93.3197 45.4025 112.908 69.5663 112.908C93.7301 112.908 113.319 93.3197 113.319 69.1559C113.319 44.9921 93.7301 25.4035 69.5663 25.4035ZM13.3132 69.1559C13.3132 38.0882 38.4986 12.9028 69.5663 12.9028C100.634 12.9028 125.819 38.0882 125.819 69.1559C125.819 100.224 100.634 125.409 69.5663 125.409C38.4986 125.409 13.3132 100.224 13.3132 69.1559Z" fill="#94AFB0"/>
<path fill-rule="evenodd" clip-rule="evenodd" d="M100.461 100.051C102.902 97.61 106.86 97.61 109.301 100.051L136.49 127.24C138.931 129.681 138.931 133.638 136.49 136.079C134.049 138.52 130.091 138.52 127.65 136.079L100.461 108.89C98.0204 106.449 98.0204 102.492 100.461 100.051Z" fill="#94AFB0"/>
</svg>
