<svg width="35" height="35" viewBox="0 0 163 163" fill="none" xmlns="http://www.w3.org/2000/svg">
<path d="M81.3521 101.649C92.5314 101.649 101.594 92.5861 101.594 81.4068C101.594 70.2276 92.5314 61.165 81.3521 61.165C70.1729 61.165 61.1104 70.2276 61.1104 81.4068C61.1104 92.5861 70.1729 101.649 81.3521 101.649Z" stroke="#94AFB0" stroke-width="10" stroke-linecap="round"/>
<path d="M93.2636 14.9613C90.7833 13.9341 87.6398 13.9341 81.352 13.9341C75.0642 13.9341 71.9207 13.9341 69.4404 14.9613C66.134 16.3309 63.507 18.958 62.1373 22.2645C61.5121 23.7739 61.2674 25.5293 61.1717 28.0898C61.031 31.8527 59.1013 35.3357 55.8402 37.2184C52.5792 39.1011 48.598 39.0308 45.2689 37.2713C43.0036 36.0739 41.361 35.4081 39.7412 35.1948C36.1928 34.7277 32.6042 35.6892 29.7648 37.868C27.6353 39.502 26.0634 42.2247 22.9195 47.6699C19.7757 53.1152 18.2038 55.8378 17.8534 58.4992C17.3863 62.0475 18.3479 65.6361 20.5266 68.4756C21.521 69.7717 22.9187 70.8608 25.0878 72.2237C28.2767 74.2276 30.3284 77.6411 30.3282 81.4067C30.328 85.1724 28.2763 88.5851 25.0878 90.5884C22.9183 91.952 21.5205 93.0417 20.5259 94.3379C18.3472 97.1771 17.3856 100.765 17.8528 104.314C18.2031 106.975 19.775 109.698 22.9189 115.143C26.0628 120.588 27.6347 123.311 29.7642 124.945C32.6036 127.123 36.1922 128.085 39.7405 127.618C41.3602 127.405 43.0027 126.739 45.2679 125.542C48.5972 123.782 52.5787 123.712 55.8399 125.595C59.1011 127.478 61.031 130.961 61.1717 134.724C61.2675 137.284 61.5121 139.04 62.1373 140.549C63.507 143.855 66.134 146.483 69.4404 147.852C71.9207 148.879 75.0642 148.879 81.352 148.879C87.6398 148.879 90.7833 148.879 93.2636 147.852C96.5698 146.483 99.1972 143.855 100.566 140.549C101.192 139.04 101.437 137.284 101.532 134.724C101.673 130.961 103.602 127.478 106.863 125.595C110.124 123.711 114.106 123.782 117.436 125.542C119.701 126.739 121.343 127.404 122.962 127.617C126.511 128.085 130.1 127.123 132.939 124.945C135.068 123.311 136.64 120.588 139.784 115.142C142.928 109.697 144.5 106.975 144.851 104.314C145.317 100.765 144.356 97.1764 142.177 94.3372C141.183 93.041 139.785 91.9514 137.615 90.5884C134.427 88.5851 132.375 85.1717 132.375 81.4061C132.375 77.6404 134.427 74.2283 137.615 72.2251C139.785 70.8614 141.183 69.7724 142.178 68.4756C144.357 65.6366 145.318 62.048 144.851 58.4996C144.501 55.8383 142.929 53.1157 139.785 47.6704C136.641 42.2252 135.069 39.5025 132.94 37.8685C130.1 35.6897 126.511 34.7281 122.963 35.1953C121.344 35.4085 119.701 36.0743 117.436 37.2715C114.107 39.0311 110.125 39.1015 106.864 37.2186C103.602 35.3358 101.673 31.8525 101.532 28.0894C101.437 25.5291 101.192 23.7738 100.566 22.2645C99.1972 18.958 96.5698 16.3309 93.2636 14.9613Z" stroke="#94AFB0" stroke-width="10" stroke-linecap="round"/>
</svg>
