<svg width="132" height="132" viewBox="0 0 132 132" fill="none" xmlns="http://www.w3.org/2000/svg">
<path fill-rule="evenodd" clip-rule="evenodd" d="M62.6518 6.71314C64.6311 5.17375 67.4025 5.17375 69.3818 6.71314L118.71 45.0795C120.045 46.1179 120.826 47.7146 120.826 49.4059V109.696C120.826 114.057 119.094 118.239 116.01 121.323C112.926 124.406 108.744 126.139 104.383 126.139H27.6504C23.2895 126.139 19.1072 124.406 16.0236 121.323C12.94 118.239 11.2076 114.057 11.2076 109.696V49.4059C11.2076 47.7146 11.9885 46.1179 13.3236 45.0795L62.6518 6.71314ZM22.1695 52.0866V109.696C22.1695 111.15 22.7469 112.544 23.7748 113.572C24.8027 114.599 26.1968 115.177 27.6504 115.177H104.383C105.837 115.177 107.231 114.599 108.259 113.572C109.287 112.544 109.864 111.15 109.864 109.696V52.0866L66.0168 17.9831L22.1695 52.0866Z" fill="#94AFB0"/>
<path fill-rule="evenodd" clip-rule="evenodd" d="M44.0931 65.8486C44.0931 62.8216 46.547 60.3677 49.5741 60.3677H82.4596C85.4866 60.3677 87.9405 62.8216 87.9405 65.8486V120.658C87.9405 123.685 85.4866 126.139 82.4596 126.139C79.4325 126.139 76.9786 123.685 76.9786 120.658V71.3295H55.055V120.658C55.055 123.685 52.6011 126.139 49.5741 126.139C46.547 126.139 44.0931 123.685 44.0931 120.658V65.8486Z" fill="#94AFB0"/>
</svg>
